<svg id="图层_1" data-name="图层 1" xmlns="http://www.w3.org/2000/svg" viewBox="0 0 678.29 467.45"><defs><style>.cls-1{fill:#999;}.cls-2{fill:#333;}.cls-3{fill:#fff;}.cls-4{fill:#1775ef;}</style></defs><title>404</title><path class="cls-1" d="M216.12,421.66a6.56,6.56,0,0,0,6.53-6.56V285.62c0-87.65-71.59-158.72-159.88-158.72S-97.12,198-97.12,285.61V415.1a6.57,6.57,0,0,0,6.53,6.56ZM268.29,45a16.38,16.38,0,0,0,32.76,0,16.38,16.38,0,0,0-32.76,0Zm85.16,36a19.65,19.65,0,0,0,39.3,0v0a19.65,19.65,0,1,0-39.3,0Zm-615.75,91.7a13.11,13.11,0,0,0,13.1,12.71,13.11,13.11,0,0,0,13.1-12.71,13.11,13.11,0,0,0-13.1-13.11,13.11,13.11,0,0,0-13.11,13.11Zm0,0" transform="translate(262.29 -29)"/><path class="cls-1" d="M-80.42,258A199.26,199.26,0,0,0-144,265.55a125,125,0,0,0-34,15.45c-30.15,20.08-41.42,40.71-38,58.52a25.41,25.41,0,0,0,1.08,3.88,19.67,19.67,0,0,0,25.3,11.5A19.66,19.66,0,0,0-178,329.61a14.72,14.72,0,0,1,.71,2.45,7.32,7.32,0,0,1,.15,2.21,7,7,0,0,1,.79-1.81c2.65-4.84,9-11.23,20.24-18.74a86.27,86.27,0,0,1,23.34-10.48c17.21-5.09,35.71-6.55,50.79-5.93.91,0,1.49.07,1.68.09a19.66,19.66,0,0,0,20.78-18.18,19.66,19.66,0,0,0-17.89-21c-.62,0-1.63-.1-3-.16Zm279.8,39.27c15.09-.61,33.58.84,50.8,5.93a86.23,86.23,0,0,1,23.33,10.48c11.26,7.51,17.59,13.89,20.24,18.74a7.26,7.26,0,0,1,.78,1.81,6.86,6.86,0,0,1,.14-2.21,15.92,15.92,0,0,1,.7-2.45,19.66,19.66,0,1,0,36.81,13.8,25.22,25.22,0,0,0,1.08-3.88c3.45-17.8-7.82-38.43-38-58.52a124.77,124.77,0,0,0-34-15.45A199.41,199.41,0,0,0,197.78,258c-1.36.06-2.37.11-3,.16a19.66,19.66,0,0,0,2.89,39.2l1.69-.09Zm0,0" transform="translate(262.29 -29)"/><path class="cls-2" d="M183.15,205.5a6.55,6.55,0,0,0,13.1,0V119.73a6.55,6.55,0,0,0-13.1,0Zm26.2-25.73a6.55,6.55,0,0,0,13.1,0V119.73a6.55,6.55,0,1,0-13.1,0ZM235.55,154a6.55,6.55,0,0,0,13.1,0v-34.3a6.55,6.55,0,1,0-13.1,0Zm0,0" transform="translate(262.29 -29)"/><path class="cls-3" d="M39,277.55c13.1,13.11,3.27,85.16,22.93,85.16s9.82-72.05,22.92-85.16Zm0,0" transform="translate(262.29 -29)"/><path d="M22.71,101" transform="translate(262.29 -29)"/><rect class="cls-2" x="217.4" y="176.66" width="213.19" height="11.67" rx="5.83" ry="5.83"/><rect class="cls-2" x="217.4" y="213.33" width="83.67" height="11.67" rx="5.83" ry="5.83"/><circle class="cls-2" cx="286.32" cy="200.83" r="7.5"/><rect class="cls-2" x="346.92" y="213.33" width="83.67" height="11.67" rx="5.83" ry="5.83"/><circle class="cls-2" cx="415.84" cy="200.83" r="7.5"/><path class="cls-4" d="M287.24,336.58h-10L273.29,359h-20l3.95-22.4H219.67l2.61-14.81,40.43-52.39h26.38l-9,50.94h10Zm-27.12-16.26,2.31-13.13c1-5.66,3.11-14.21,4.35-19.87h-.48c-3.18,5.06-6.5,10.24-9.92,15.3L243,320.32Z" transform="translate(262.29 -29)"/><path class="cls-4" d="M313.57,289.34l2.72.47c.31-.41,3.35-3,3.67-3.31Z" transform="translate(262.29 -29)"/><path class="cls-4" d="M329.2,267.92a32.08,32.08,0,0,0-14.7,3.47l6,2.78-8.6,7.09,12.83,3.27a10.72,10.72,0,0,1,1.57-.12c6.38,0,10.67,5.06,6.36,29.51s-10.53,30.35-16.91,30.35a7.64,7.64,0,0,1-2.89-.51l-1.31,5.61,1.71-3.31L311.83,357l2.1-1.73-1.69,5.61.56,0c18.91,0,34.64-16.14,40.08-47C358.27,283.34,348.1,267.92,329.2,267.92Z" transform="translate(262.29 -29)"/><path class="cls-4" d="M314.58,292l-4.53-2L317.5,285l-8-3.55,6.5-6.5-4.28-2.8c-11.28,6.45-19.91,20.32-23.7,41.78-5.35,30.34,4.18,46.44,22.51,46.95l.27-3.4-.83,1.18,1.12-11.22-2.76,4.73,2.6-8.65c-4.22-2.21-6.16-9.81-2.67-29.59C310.07,303.44,312.22,296.53,314.58,292Zm-9.23,11.75-.32-2.19,3.56-.51Z" transform="translate(262.29 -29)"/><polygon class="cls-4" points="585.35 257.06 591.56 257.5 590.4 260.07 585.35 257.06"/><polygon class="cls-4" points="567.79 334.59 559.21 334.58 561 336.94 567.79 334.59"/><polygon class="cls-4" points="580.5 333.68 583.34 333.68 582.51 335.53 580.5 333.68"/><polygon class="cls-4" points="570.81 332.73 568.71 332.73 568.71 333.68 570.81 332.73"/><polygon class="cls-4" points="569.76 336.75 567.5 336.75 567.5 338.29 569.76 336.75"/><path class="cls-4" d="M406,320.55l9-50.94H388.61L348.18,322l-2.61,14.81h37.58l-3.95,22.4h8.69l.91-7-1.24.8,2.39-8.78-1.77,2.48L391.1,334l-3.69,7.77,3.65-10.42,1.21-3.64-1.74,6.53,1.37-2.19-3.17,13.35,2.19-4.39-2.22,10.29,1.39-.92-.87,8.8h10l3.95-22.4h10L416,320.55Zm-17.68-13.13L386,320.55h-17.1l13.36-17.7c3.42-5.06,6.74-10.24,9.92-15.3h.48C391.44,293.21,389.33,301.76,388.33,307.43Z" transform="translate(262.29 -29)"/><polygon class="cls-4" points="648.96 331.07 645.77 331.9 646.71 333.2 648.96 331.07"/><polygon class="cls-4" points="648.96 344.2 647.36 348.57 648.96 349.05 648.96 344.2"/><polygon class="cls-4" points="652.03 331.07 653.81 332.14 652.51 333.2 652.03 331.07"/><polygon class="cls-4" points="649.69 331.46 649.4 332.59 648.96 332.5 649.69 331.46"/><polygon class="cls-4" points="628.27 332.73 629.33 334.6 631.82 332.73 628.27 332.73"/><polygon class="cls-4" points="664.36 331.46 668.17 331.46 667.2 332.59 664.36 331.46"/><polygon class="cls-4" points="539.4 375.4 531.21 377.37 533.01 379.66 539.4 375.4"/><polygon class="cls-4" points="579.79 359.79 580.5 364.16 582.25 360.88 579.79 359.79"/><path class="cls-4" d="M-162.49,473a12.92,12.92,0,0,0,9.88,4,11.07,11.07,0,0,0,5.55-1.2,5.1,5.1,0,0,0,2.58-3.08,3.53,3.53,0,0,0-.57-3.06q-1-1.44-6.29-3.92-8.29-4-6.26-11.54a14.07,14.07,0,0,1,6.55-8.64,22.73,22.73,0,0,1,12-3.08A24.32,24.32,0,0,1-129.6,444l-2.14,8a13.14,13.14,0,0,0-8.67-2.73,11.37,11.37,0,0,0-5.33,1.15,4.94,4.94,0,0,0-2.71,3.08,3.21,3.21,0,0,0,.53,2.85q.94,1.3,5.42,3.52,5.27,2.55,6.74,5.38a9.15,9.15,0,0,1,.42,6.75,14.23,14.23,0,0,1-6.42,8.76q-4.88,3-12.37,3-6.85,0-10.64-2.21Z" transform="translate(262.29 -29)"/><path class="cls-4" d="M-130.36,469a19.85,19.85,0,0,1,7.17-11.05,19.92,19.92,0,0,1,12.4-4q6.88,0,9.86,4t1.2,10.63a20.51,20.51,0,0,1-7.14,11.15,19.34,19.34,0,0,1-12.34,4.15q-7,0-10-4T-130.36,469Zm8.45-.1q-2.28,8.53,4.67,8.53,6.67,0,9-8.76,2.24-8.35-4.49-8.35a8.09,8.09,0,0,0-5.69,2.24A13,13,0,0,0-121.91,468.86Z" transform="translate(262.29 -29)"/><path class="cls-4" d="M-74,462.13a6,6,0,0,0-3.45-.87,7.12,7.12,0,0,0-5.07,2.16,12.59,12.59,0,0,0-3.26,6l-3.67,13.7h-8.32l7.63-28.49h8.32l-1.44,5.36h.1q3.63-5.85,9.06-5.85a5.2,5.2,0,0,1,2.15.33Z" transform="translate(262.29 -29)"/><path class="cls-4" d="M-51.64,462.13a6,6,0,0,0-3.45-.87,7.12,7.12,0,0,0-5.07,2.16,12.59,12.59,0,0,0-3.26,6l-3.67,13.7h-8.32l7.63-28.49h8.32l-1.44,5.36h.1q3.63-5.85,9.06-5.85a5.2,5.2,0,0,1,2.15.33Z" transform="translate(262.29 -29)"/><path class="cls-4" d="M-16.52,454.59l-20.06,31q-7,10.82-15.16,10.82a13.14,13.14,0,0,1-4.82-.67l1.79-6.67a6,6,0,0,0,3.43,1,6.72,6.72,0,0,0,5.67-3.3l2.57-3.74L-47,454.59h9.22l.78,17.85a18.21,18.21,0,0,1-.23,3.63h.15a30.76,30.76,0,0,1,1.81-3.58l10.49-17.9Z" transform="translate(262.29 -29)"/><path class="cls-4" d="M-5.34,476.23l-7.91,14h-6.08l6.7-14Z" transform="translate(262.29 -29)"/><path class="cls-4" d="M57.31,462h7.21l-.37,1.39a44.25,44.25,0,0,1-4.08,10.41q11.56,5.31,19.86,10.1l-5.67,6.34q-8-5.28-18.33-10.79-7.67,7.86-23.51,10.84a40.15,40.15,0,0,0-3-7.57q13.28-1.29,19.12-5.5t8.39-13.72Zm-20.87,15.2L42.93,453h12.8q2-2.91,3.54-5.51H39.83l1.66-6.18H90.63L89,447.45H67.67q-2,2.88-4.05,5.51h19.5l-6.41,23.9H69.6l4.75-17.72h-26l-4.83,18Z" transform="translate(262.29 -29)"/><path class="cls-4" d="M93.76,441.89h49.72l-1.55,5.77H120q-2,2.86-3.71,5.1h21.54l-10,37.15h-6.59l.72-2.68H91l-.72,2.68H83.68l10-37.15h14.45q1.59-2.4,3.25-5.1H92.22Zm-1.24,39.62h4.53l6.17-23H98.7Zm11,0h8.71l1.15-4.28H104.7Zm2.54-9.48h8.71l1.12-4.17h-8.71Zm2.51-9.38h8.71l1.12-4.17h-8.71Zm21.11-4.17h-4.79l-6.17,23h4.79Z" transform="translate(262.29 -29)"/><path class="cls-4" d="M147.76,442.46h47.29l-1.88,7H174.86a85.31,85.31,0,0,1-6.27,8.29h2.47l-1.61,6,6.45-4.84q5.3,6.18,12.71,15.25L181,480.12A126.5,126.5,0,0,0,169.4,464l-7,26.12h-7.78l6.61-24.68a116,116,0,0,1-20.6,15.15q-1-2.37-3.43-6.8,19.18-10.64,29-24.32h-20.3Z" transform="translate(262.29 -29)"/><path class="cls-4" d="M233.86,473.37a40.17,40.17,0,0,0,6.91,2.68q-1.14,3-2.44,5.85a17.6,17.6,0,0,1-2.47,4.16,8,8,0,0,1-3.34,2.13,14.82,14.82,0,0,1-5.11.8h-9q-7.16,0-5.2-7.32l2.39-8.91q-7.78,11-25.52,17.57a48.89,48.89,0,0,0-2.86-7q14.32-4.61,20.6-11.28t9.74-20.81H225a76.67,76.67,0,0,1-5.45,15h5.28l-3.71,13.86q-.62,2.32,1.44,2.32h5.41a3.82,3.82,0,0,0,2.79-1.26Q232,479.91,233.86,473.37Zm-37.73-.31,8.5-31.74H244l-8.39,31.32h-7.42l6.65-24.83H210.31l-6.76,25.24Z" transform="translate(262.29 -29)"/><path class="cls-4" d="M269.4,459.35q7.38-4.28,17.13-10.3H251.3l1.92-7.16h47.19L298.5,449l-21.82,13.55-4.46,16.64a11.93,11.93,0,0,1-12.58,9.74l-9.42.05q.3-3.81.26-7.88,4.8.46,8.09.46,3,0,4.29-1.25a7,7,0,0,0,1.78-3.23Z" transform="translate(262.29 -29)"/></svg>